<?xml version="1.0" encoding="UTF-8"?>
<svg width="1200pt" height="1200pt" version="1.1" viewBox="0 0 1200 1200" xmlns="http://www.w3.org/2000/svg">
 <g fill-rule="evenodd">
  <path d="m605.63 419.67 168.83-97.484 168.84 97.484-168.84 97.473z"/>
  <path d="m785.73 523.64 168.83-97.473 168.84 97.473-168.84 97.484z"/>
  <path d="m425.54 523.64 168.83-97.473 168.84 97.473-168.84 97.484z"/>
  <path d="m245.44 419.67 168.83-97.484 168.84 97.484-168.84 97.473z"/>
  <path d="m65.348 523.64 168.84-97.473 168.83 97.473-168.83 97.484z"/>
  <path d="m65.348 536.64 168.84 97.484v194.95l-168.84-97.473z"/>
  <path d="m425.54 536.64 168.83 97.484v194.95l-168.83-97.473z"/>
  <path d="m785.73 536.64 168.83 97.484v194.95l-168.83-97.473z"/>
  <path d="m414.27 530.14-168.83 97.484v194.95l168.83-97.473z"/>
  <path d="m774.46 530.14-168.83 97.484v194.95l168.83-97.473z"/>
  <path d="m1134.7 530.14-168.84 97.484v194.95l168.84-97.473z"/>
 </g>
</svg>
