<?xml version="1.0" encoding="UTF-8" standalone="no"?>
<svg
   width="1200pt"
   height="1200pt"
   version="1.1"
   viewBox="0 0 1200 1200"
   id="svg148"
   sodipodi:docname="noun-pentomino-piece-3644810(2).3.svg"
   inkscape:version="1.2.2 (b0a8486541, 2022-12-01)"
   inkscape:export-filename="noun-pentomino-piece-3644810(2).4.svg"
   inkscape:export-xdpi="96"
   inkscape:export-ydpi="96"
   xmlns:inkscape="http://www.inkscape.org/namespaces/inkscape"
   xmlns:sodipodi="http://sodipodi.sourceforge.net/DTD/sodipodi-0.dtd"
   xmlns="http://www.w3.org/2000/svg"
   xmlns:svg="http://www.w3.org/2000/svg">
  <defs
     id="defs152" />
  <sodipodi:namedview
     id="namedview150"
     pagecolor="#505050"
     bordercolor="#ffffff"
     borderopacity="1"
     inkscape:showpageshadow="0"
     inkscape:pageopacity="0"
     inkscape:pagecheckerboard="1"
     inkscape:deskcolor="#505050"
     inkscape:document-units="pt"
     showgrid="false"
     inkscape:zoom="0.48875"
     inkscape:cx="493.09463"
     inkscape:cy="849.10486"
     inkscape:window-width="1920"
     inkscape:window-height="1011"
     inkscape:window-x="0"
     inkscape:window-y="0"
     inkscape:window-maximized="1"
     inkscape:current-layer="svg148" />
  <g
     fill-rule="evenodd"
     id="g146"
     style="fill:#ffffff;fill-opacity:1"
     transform="rotate(160,600.024,575.63)">
    <path
       d="M 605.63,419.67 774.46,322.186 943.3,419.67 774.46,517.143 Z"
       id="path124"
       style="fill:#ffffff;fill-opacity:1" />
    <path
       d="M 785.73,523.64 954.56,426.167 1123.4,523.64 954.56,621.124 Z"
       id="path126"
       style="fill:#ffffff;fill-opacity:1" />
    <path
       d="M 425.54,523.64 594.37,426.167 763.21,523.64 594.37,621.124 Z"
       id="path128"
       style="fill:#ffffff;fill-opacity:1" />
    <path
       d="M 245.44,419.67 414.27,322.186 583.11,419.67 414.27,517.143 Z"
       id="path130"
       style="fill:#ffffff;fill-opacity:1" />
    <path
       d="m 65.348,523.64 168.84,-97.473 168.83,97.473 -168.83,97.484 z"
       id="path132"
       style="fill:#ffffff;fill-opacity:1" />
    <path
       d="m 65.348,536.64 168.84,97.484 v 194.95 L 65.348,731.601 Z"
       id="path134"
       style="fill:#ffffff;fill-opacity:1" />
    <path
       d="m 425.54,536.64 168.83,97.484 v 194.95 L 425.54,731.601 Z"
       id="path136"
       style="fill:#ffffff;fill-opacity:1" />
    <path
       d="m 785.73,536.64 168.83,97.484 v 194.95 L 785.73,731.601 Z"
       id="path138"
       style="fill:#ffffff;fill-opacity:1" />
    <path
       d="m 414.27,530.14 -168.83,97.484 v 194.95 l 168.83,-97.473 z"
       id="path140"
       style="fill:#ffffff;fill-opacity:1" />
    <path
       d="m 774.46,530.14 -168.83,97.484 v 194.95 l 168.83,-97.473 z"
       id="path142"
       style="fill:#ffffff;fill-opacity:1" />
    <path
       d="m 1134.7,530.14 -168.84,97.484 v 194.95 l 168.84,-97.473 z"
       id="path144"
       style="fill:#ffffff;fill-opacity:1" />
  </g>
  <path
     style="fill:#000000;stroke-width:1.53453"
     d="m 954.01894,230.19763 93.83776,16.65927 32.9823,90.6182 32.9823,90.6182 -4.7457,-0.70041 c -2.6101,-0.38523 -45.2011,-7.87242 -94.6465,-16.63821 l -89.90091,-15.93779 -33.30072,-90.33761 c -18.3154,-49.68565 -32.79343,-90.4734 -32.17349,-90.63926 0.62002,-0.1658 43.35421,7.19503 94.96496,16.35761 z"
     id="path379" />
  <path
     style="fill:#000000;stroke-width:1.53453"
     d="m 881.46727,314.64457 33.0147,90.70715 -61.50591,73.25799 c -33.82826,40.2919 -61.84035,73.37972 -62.24911,73.5285 -0.40873,0.14876 -15.3874,-40.48408 -33.28587,-90.29521 l -32.5427,-90.56571 58.65639,-69.90569 c 32.26101,-38.44815 60.06069,-71.59966 61.77709,-73.66995 l 3.1207,-3.76426 z"
     id="path381" />
  <path
     style="fill:#ffffff;fill-opacity:1;stroke-width:1.53453"
     d="m 881.29239,315.25178 32.23381,89.71728 -54.69849,65.07664 c -30.08418,35.79216 -57.67188,68.53188 -61.306,72.75493 l -6.6075,7.67829 -32.25451,-89.77421 -32.25453,-89.77421 60.81894,-72.51321 c 33.45043,-39.88224 61.04745,-72.59635 61.32672,-72.69799 0.27926,-0.10165 15.01297,40.18799 32.74156,89.53248 z"
     id="path2081" />
  <path
     style="fill:#ffffff;fill-opacity:1;stroke-width:1.53453"
     d="m 935.67522,228.03024 c 41.25492,7.23751 83.25938,14.62752 93.34318,16.42227 l 18.3344,3.2632 32.9693,89.4268 c 18.1331,49.18474 32.6913,89.52799 32.3515,89.65167 -1.0871,0.39565 -183.08197,-31.75254 -185.59382,-32.78392 -1.90017,-0.7802 -9.23349,-19.97228 -34.4141,-90.0653 l -31.99937,-89.0738 z"
     id="path2083" />
</svg>
